
<svg width="720" height="720" viewBox="0 0 720 720" fill="none" xmlns="http://www.w3.org/2000/svg">
<path d="M519.069 174.575C547.668 211.887 565.655 250.718 591.036 296.505C616.417 342.293 649.193 395.036 632.446 444.296C615.7 493.557 549.431 539.334 491.908 571.677C434.384 604.019 385.605 622.927 333.219 619.442C280.832 615.957 224.838 590.08 185.099 549.988C145.359 509.897 121.875 455.592 107.236 391.901C92.5966 328.21 86.8019 255.132 112.174 206.189C137.547 157.246 194.088 132.439 247.271 119.694C300.455 106.949 350.282 106.265 390.743 119.694C431.203 133.124 462.297 160.665 519.069 174.575Z" fill="#EBF3FE"/>
<!-- Original card SVG content preserved -->
<path d="M225.958 291.764C225.958 278.376 236.784 267.548 250.171 267.548H457.281C470.669 267.548 481.497 278.376 481.497 291.764V406.685C481.497 420.073 470.669 430.901 457.281 430.901H250.171C236.784 430.901 225.958 420.073 225.958 406.685V291.764Z" fill="white"/>
<path d="M225.958 291.764C225.958 278.376 236.784 267.548 250.171 267.548H457.281C470.669 267.548 481.497 278.376 481.497 291.764V406.685C481.497 420.073 470.669 430.901 457.281 430.901H250.171C236.784 430.901 225.958 420.073 225.958 406.685V291.764Z" stroke="#3F87F6" stroke-width="3.72533"/>
<path d="M354.006 430.906H250.171C236.784 430.906 225.958 420.078 225.958 406.689V291.769C225.958 278.381 236.784 267.553 250.171 267.553H354.006V430.906Z" fill="#F4F9FF"/>
<path d="M354.006 430.906H250.171C236.784 430.906 225.958 420.078 225.958 406.689V291.769C225.958 278.381 236.784 267.553 250.171 267.553H354.006V430.906Z" stroke="#3F87F6" stroke-width="3.72533"/>
<path d="M308.979 337.384C308.979 327.813 316.736 320.055 326.306 320.055H382.129C391.7 320.055 399.458 327.813 399.458 337.384V361.301C399.458 370.872 391.7 378.629 382.129 378.629H326.306C316.736 378.629 308.979 370.872 308.979 361.301V337.384Z" fill="#3F87F6"/>
<path d="M353.784 357.114C360.191 357.114 365.391 351.913 365.391 345.506C365.391 339.099 360.191 333.898 353.784 333.898C347.377 333.898 342.176 339.099 342.176 345.506C342.176 351.913 347.377 357.114 353.784 357.114Z" fill="white"/>
<path d="M257.695 344.401C257.695 341.462 260.076 339.08 263.014 339.08H310.063C313.002 339.08 315.383 341.462 315.383 344.401C315.383 347.339 313.002 349.721 310.063 349.721H263.014C260.076 349.721 257.695 347.339 257.695 344.401Z" fill="#3F87F6"/>
<path d="M257.695 320.184C257.695 317.246 260.076 314.864 263.014 314.864H282.066C285.005 314.864 287.386 317.246 287.386 320.184C287.386 323.123 285.005 325.505 282.066 325.505H263.014C260.076 325.505 257.695 323.123 257.695 320.184Z" fill="#3F87F6"/>
<path d="M257.695 377.525C257.695 374.587 260.076 372.205 263.014 372.205H282.066C285.005 372.205 287.386 374.587 287.386 377.525C287.386 380.464 285.005 382.846 282.066 382.846H263.014C260.076 382.846 257.695 380.464 257.695 377.525Z" fill="#3F87F6"/>
<path d="M225.958 291.764C225.958 278.376 236.784 267.548 250.171 267.548H457.281C470.669 267.548 481.497 278.376 481.497 291.764V406.685C481.497 420.073 470.669 430.901 457.281 430.901H250.171C236.784 430.901 225.958 420.073 225.958 406.685V291.764Z" stroke="#3F87F6" stroke-width="3.72533" stroke-linecap="round" stroke-linejoin="round"/>
</svg>
